# xmcd
#
# Track frame offsets: 
#        150
#        28207
#        43707
#        65912
#        86126
#        117153
#        134407
#        148950
#        168697
#        196546
#        243679
#        278884
#        310714
#        332618
#
# Disc length: 4749 seconds
#
# Revision: 0
# Processed by: cddbd v1.5.2PL0 Copyright (c) Steve Scherf et al.
# Submitted via: ExactAudioCopy v0.99pb3
#
DISCID=d9128b0e
DTITLE=Irek Dudek Symphonic Blues - New Vision Of Blues
DYEAR=2006
DGENRE=Blues Rock, Boogie, Neo Swing, Rock'n'Roll
TTITLE0=Everyday I Have The Blues
TTITLE1=Tell Me Pretty Baby
TTITLE2=Dudi Boogie
TTITLE3=Ain't No Need Her
TTITLE4=Za Duzo By Umrzec, Za Malo By Zyc
TTITLE5=Od Nowa
TTITLE6=Nie Zapraszaj Mnie
TTITLE7=Wstawaj
TTITLE8=From Alojz To Alex
TTITLE9=Blues A
TTITLE10=Flute Tune
TTITLE11=Something Must Have Changed
TTITLE12=Przebierka
TTITLE13=Gloria
EXTD=
EXTT0=
EXTT1=
EXTT2=
EXTT3=
EXTT4=
EXTT5=
EXTT6=
EXTT7=
EXTT8=
EXTT9=
EXTT10=
EXTT11=
EXTT12=
EXTT13=
PLAYORDER=
